<?xml version="1.0" encoding="utf-8"?>
<!-- Generator: Adobe Illustrator 15.0.2, SVG Export Plug-In  -->
<!DOCTYPE svg PUBLIC "-//W3C//DTD SVG 1.1//EN" "http://www.w3.org/Graphics/SVG/1.1/DTD/svg11.dtd" [
	<!ENTITY ns_flows "http://ns.adobe.com/Flows/1.0/">
]>
<svg version="1.1"
	 xmlns="http://www.w3.org/2000/svg" xmlns:xlink="http://www.w3.org/1999/xlink" xmlns:a="http://ns.adobe.com/AdobeSVGViewerExtensions/3.0/"
	 x="0px" y="0px" width="900px" height="652px" viewBox="25.957 -3.909 900 652"
	 overflow="visible" enable-background="new 25.957 -3.909 900 652" xml:space="preserve">
<defs>
</defs>
<radialGradient id="path5852_2_" cx="-4130.9897" cy="6234.3726" r="264.0543" gradientTransform="matrix(1 0 0 -0.2052 4395.04 1730.0654)" gradientUnits="userSpaceOnUse">
	<stop  offset="0" style="stop-color:#000000"/>
	<stop  offset="1" style="stop-color:#000000;stop-opacity:0"/>
</radialGradient>
<path id="path5852_1_" fill="url(#path5852_2_)" d="M528.1,450.71c0,29.928-118.22,54.188-264.05,54.188
	C118.217,504.898,0,480.638,0,450.71c0-29.926,118.22-54.188,264.05-54.188C409.882,396.523,528.1,420.785,528.1,450.71z"/>
<g id="path5862_1_" opacity="0.4093" enable-background="new    ">
	
		<radialGradient id="SVGID_1_" cx="-3906.4478" cy="4066.7964" r="397.8257" gradientTransform="matrix(1.8716 0.1415 0.0251 -0.3313 7292.7471 2314.2932)" gradientUnits="userSpaceOnUse">
		<stop  offset="0" style="stop-color:#000000"/>
		<stop  offset="1" style="stop-color:#000000;stop-opacity:0"/>
	</radialGradient>
	<path fill="url(#SVGID_1_)" d="M176.753,458.431c-10.216,18.158,423.668,170.029,523.117,169.035
		c65.115-0.65,191.864,33.934,227.345,22.982c35.483-10.951,55.565-72.609,52.72-89.662c-2.845-17.051,3.82-46.795-15.264-74.85
		c-19.083-28.051-81.192-55-115.637-54.459c-159.007-21.555-377.965-11.049-572.467-2.02c-10.299,0.678-76.905,10.229-85.261,14.225
		c-8.356,3.998-14.546,14.748-14.546,14.748H176.753z"/>
</g>
<radialGradient id="path4839_2_" cx="-3898.73" cy="775.0073" r="208.1474" gradientTransform="matrix(1.7441 0 0 -1.7441 6979.6157 1439.4207)" gradientUnits="userSpaceOnUse">
	<stop  offset="0" style="stop-color:#FFFFFF"/>
	<stop  offset="0.5" style="stop-color:#CBCBC7"/>
	<stop  offset="0.6244" style="stop-color:#B1B1AB"/>
	<stop  offset="1" style="stop-color:#979890"/>
</radialGradient>
<path id="path4839_1_" fill="url(#path4839_2_)" d="M490.316,229.648c0,126.83-102.816,229.65-229.649,229.65
	c-126.83,0-229.649-102.816-229.649-229.65C31.018,102.819,133.834,0,260.667,0C387.497,0,490.316,102.816,490.316,229.648z"/>
<g id="path5548_1_" opacity="0.4401" enable-background="new    ">
	<radialGradient id="SVGID_2_" cx="-2295.2437" cy="-258.0688" r="93.851" gradientUnits="userSpaceOnUse">
		<stop  offset="0" style="stop-color:#000000"/>
		<stop  offset="1" style="stop-color:#000000;stop-opacity:0"/>
	</radialGradient>
	<path fill="none" stroke="url(#SVGID_2_)" stroke-width="20" d="M454.44,299.396c2.655,1.77,18.015-53.271,18.854-56.562
		c0.876-3.437,12.164-15.205,12.164-15.205"/>
</g>
<g id="path4923_1_">
	<path fill="none" stroke="#36372E" stroke-width="13" d="M152.24,362.402l49.455-68.808c0,0,114.418-1.508,115.918-0.34
		s50.272,66.812,50.272,66.812"/>
</g>
<g id="path4979_1_">
	
		<linearGradient id="SVGID_3_" gradientUnits="userSpaceOnUse" x1="-4266.2368" y1="563.7788" x2="-4195.7114" y2="610.6542" gradientTransform="matrix(1 0 0 -1 4587.7002 912.0537)">
		<stop  offset="0" style="stop-color:#FFFFFF"/>
		<stop  offset="1" style="stop-color:#FFFFFF;stop-opacity:0"/>
	</linearGradient>
	<path fill="url(#SVGID_3_)" d="M323.39,289.874c0,0,43.005,61.926,47.305,64.506c4.301,2.582,70.53-32.684,73.11-36.125
		c2.58-3.439,6.021-7.74,6.021-7.74s0,13.762-6.021,18.922c-6.021,5.162-70.53,36.125-70.53,36.125l-56.768-76.548L323.39,289.874z"
		/>
</g>
<g id="path5450_1_" opacity="0.6718" enable-background="new    ">
	<linearGradient id="SVGID_4_" gradientUnits="userSpaceOnUse" x1="-3849.5435" y1="-490.0488" x2="-4100.6436" y2="-414.3589">
		<stop  offset="0" style="stop-color:#000000"/>
		<stop  offset="1" style="stop-color:#000000;stop-opacity:0"/>
	</linearGradient>
	<path fill="none" stroke="url(#SVGID_4_)" stroke-width="19.6" d="M47.59,234.826c3.829,25.803,13.374,61.928,24.083,87.73
		l-0.86,21.502"/>
</g>
<g id="path4852_1_">
	
		<linearGradient id="SVGID_5_" gradientUnits="userSpaceOnUse" x1="-4478.6758" y1="990.3022" x2="-4270.5508" y2="463.9172" gradientTransform="matrix(1 0 0 -1 4587.7002 912.0537)">
		<stop  offset="0" style="stop-color:#FFFFFF"/>
		<stop  offset="1" style="stop-color:#FFFFFF;stop-opacity:0"/>
	</linearGradient>
	<path fill="url(#SVGID_5_)" d="M32.89,259.129c11.406,89.023,73.78,162.103,156.93,189.041c6.331-3.32,19.024-9.762,23.078-10.211
		c5.474-0.609,46.22,0,55.345,0c9.123,0,21.123-6.066,31.673-4.508c5.889,0.869,10.722,4.475,16.195,7.516
		c5.279,2.932,15.953,7.016,15.953,7.016c60.452-19.76,109.859-63.924,136.585-120.854c-13.286-8.365-5.272-28.302-4.969-57.507
		c-17.746,14.876-39.07,27.63-59.61,37.166c-3.003,0.846-6.104,1.238-9.398,0.672c-7.018-0.922-11.153,5.506-17.344,6.953
		c-6.929-1.562-9.217,7.916-15.359,5.57c-4.578-6.072-4.504-0.65-5.812,3.43c-5.285,1.072-25.14-20.882-29.303-20.75
		c-2.069,1.247,12.652,15.883,7.385,19.588c-19.324,13.596-52.217,13.561-79.527,13.561c-21.826,0-57.125,2.111-66.015-11.594
		c-4.01-6.184,15.856-24.147,12.539-32.063c-4.42,2.351-19.976,23.602-29.21,30.415c-6.009,4.432-6.117-4.443-9.789-3.984
		c-0.038-0.021-0.07-0.049-0.109-0.07c-16.32-14.162-26.83,2.137-40.508-7.438c-2.661,0.961-5.55,3.396-8.43,1.719
		c-1.891-2.342-4.556-1.559-7.062-0.797c-20.948-7.24-34.232-3.188-43.535-19.283c-15.177,8.106-28.859-17.524-29.7-33.585
		L32.89,259.129z"/>
</g>
<g id="path5107_1_" opacity="0.4656" enable-background="new    ">
	
		<linearGradient id="SVGID_6_" gradientUnits="userSpaceOnUse" x1="-4302.5542" y1="773.1479" x2="-4127.855" y2="871.71" gradientTransform="matrix(1 0 0 -1 4587.7002 912.0537)">
		<stop  offset="0" style="stop-color:#84867C"/>
		<stop  offset="1" style="stop-color:#84867C;stop-opacity:0"/>
	</linearGradient>
	<path fill="url(#SVGID_6_)" d="M334.49,12.129c0.663,5.508,10.774,16.68,12.211,19.555c1.825,3.649,23.722,15.816,32.846,21.898
		c9.122,6.082,4.861,3.651,6.078,9.125c1.216,5.474,7.913,18.851,11.562,30.405c3.648,11.556,5.471,36.49,6.688,43.18
		c1.216,6.69-3.65,15.812-8.516,23.109c-4.866,7.299-40.745,12.17-46.221,10.953c-5.474-1.216-86.977-57.779-86.977-57.779
		s61.43,57.777,77.852,68.117c16.422,10.339,13.378-3.043,22.5-4.867c9.123-1.825,56.562-18.24,68.728-21.281
		c12.164-3.041,9.124-10.341,8.516-24.938c-0.438-10.503,6.052-21.005,8.367-32.64c-27.722-39.095-67.364-69.138-113.632-84.835
		L334.49,12.129z"/>
</g>
<path id="path4837_1_" d="M260.64,0.004c-25.138,0-49.325,4.044-71.96,11.508c-3.366,6.377-6.953,13.79-9.383,19.398
	c-0.506,1.169-1.068,2.462-1.25,2.875c-0.229,0.519-0.829,1.007-1.93,1.594c-0.877,0.467-2.515,1.341-3.641,1.938
	c-1.127,0.597-2.581,1.421-3.234,1.836s-1.277,0.758-1.383,0.758s-1.014,0.488-2.016,1.086s-2.945,1.74-4.32,2.539
	c-2.292,1.332-4.682,2.8-9.57,5.859c-2.464,1.542-14.291,9.382-16.25,10.773c-0.864,0.614-2.777,2.004-4.25,3.086
	c-1.473,1.082-3.186,2.31-3.805,2.734c-0.619,0.425-1.694,1.225-2.391,1.781c-0.696,0.556-2.148,1.69-3.227,2.516
	c-1.078,0.825-3.265,2.55-4.859,3.836c-1.595,1.286-3.566,2.861-4.383,3.5c-0.817,0.639-1.681,1.353-1.922,1.586
	c-0.484,0.469-1.192,0.617-3.969,0.828c-1.031,0.078-2.325,0.187-2.875,0.242s-1.787,0.16-2.75,0.234
	c-0.963,0.074-2.65,0.244-3.75,0.383c-1.1,0.139-2.651,0.315-3.445,0.391c-0.794,0.075-2.594,0.308-4,0.516
	c-1.406,0.208-3.117,0.431-3.805,0.5c-0.296,0.03-1.059,0.139-2.008,0.281c-32.178,38.55-51.955,87.807-53.202,141.647
	c1.284,1.093,2.48,2.103,3.203,2.68c0.601,0.481,2.198,1.775,3.547,2.875c1.349,1.101,2.694,2.169,2.992,2.375
	c0.298,0.207,1.465,1.106,2.594,2c1.129,0.895,2.749,2.108,3.594,2.703c2.947,2.075,2.8,1.811,3.664,6.797
	c0.154,0.895,0.433,2.356,0.617,3.25c0.184,0.895,0.521,2.582,0.75,3.75c1.293,6.586,1.749,8.679,3.164,14.625
	c2.719,11.427,6.431,24.201,10.289,35.376c0.546,1.58,1.163,3.381,1.367,4c0.393,1.187,1.341,3.771,3.36,9.125
	c0.674,1.787,1.405,3.756,1.625,4.375s0.567,1.371,0.766,1.68c0.327,0.506,0.276,0.828-0.539,3.375
	c-1.43,4.467-1.576,4.943-2.273,7.32c-0.363,1.236-0.77,2.531-0.898,2.875s-0.439,1.412-0.695,2.375s-0.778,2.875-1.156,4.25
	s-0.777,2.838-0.883,3.25s-0.439,1.65-0.742,2.75s-0.607,2.225-0.672,2.5c-0.061,0.26-0.138,0.561-0.18,0.711
	c28.125,46.016,71.998,81.359,124.118,98.547c0.069-0.047,0.107-0.068,0.18-0.117c1.967-1.314,4.013-2.672,4.547-3.016
	c1.032-0.664,2.805-1.904,4.914-3.438c0.709-0.516,2.228-1.605,3.375-2.422c1.146-0.816,3.375-2.447,4.953-3.625
	s3.209-2.352,3.625-2.609c0.416-0.258,0.813-0.553,0.883-0.648c0.139-0.193,2.942-2.355,4.164-3.211
	c0.86-0.604,0.647-0.604,9.836,0.203c13.932,1.223,31.452,1.699,46.68,1.273c11.157-0.312,16.285-0.594,27.195-1.5l5.75-0.477
	l0.875,0.594c1.072,0.732,2.58,1.844,6.281,4.625c2.562,1.926,8.021,5.891,10.828,7.859c2.812,1.973,6.802,4.617,9.789,6.531
	c52.067-17.15,95.904-52.426,124.047-98.354c-0.633-2.502-1.746-6.803-1.93-7.43c-0.12-0.412-0.397-1.367-0.617-2.125
	c-0.219-0.756-0.741-2.555-1.164-4c-0.423-1.443-0.866-3.018-0.984-3.5c-0.118-0.48-0.459-1.662-0.758-2.625
	c-0.298-0.961-0.695-2.256-0.875-2.875c-0.292-1.006-0.805-2.576-1.734-5.273c-0.287-0.834-0.24-1.066,0.68-3.25
	c0.545-1.293,1.369-3.42,1.828-4.727c1.164-3.312,2.082-5.785,2.367-6.375c0.134-0.273,0.741-1.961,1.352-3.75
	c0.611-1.787,1.29-3.756,1.508-4.375c0.49-1.391,2.521-7.854,3.734-11.875c0.498-1.649,1.202-3.955,1.562-5.125
	c0.361-1.168,0.801-2.743,0.969-3.5c0.168-0.756,0.773-3.059,1.352-5.117c0.578-2.058,1.145-4.195,1.258-4.749
	c0.113-0.555,0.608-2.64,1.094-4.633c0.873-3.579,1.51-6.47,2.305-10.375c0.225-1.101,0.567-2.731,0.758-3.625
	c0.458-2.146,1.52-8.054,1.727-9.594c0.184-1.361,0.73-1.993,3.125-3.602c0.757-0.509,1.551-1.097,1.766-1.305
	c0.216-0.209,0.925-0.77,1.578-1.25c0.654-0.481,1.716-1.302,2.359-1.82c0.644-0.52,1.285-1.029,1.422-1.133
	c1.028-0.779,4.165-3.281,4.898-3.906c0.496-0.423,1.452-1.216,2.117-1.766c0.551-0.455,1.319-1.119,1.938-1.656
	c-1.269-53.78-21.028-102.982-53.164-141.5c-0.192-0.028-0.392-0.055-0.539-0.078c-0.413-0.064-1.312-0.187-2-0.273
	c-0.688-0.086-2.307-0.311-3.602-0.5c-1.296-0.189-2.443-0.291-2.548-0.227c-0.104,0.064-0.264,0.001-0.352-0.141
	c-0.087-0.142-0.261-0.197-0.391-0.117s-1.052,0.033-2.047-0.109c-2.472-0.353-7.656-0.869-11.688-1.164
	c-2.798-0.205-2.392,0.039-9.569-5.734c-1.71-1.375-4.2-3.344-5.539-4.375c-1.34-1.031-2.863-2.212-3.383-2.625
	c-3.047-2.417-13.38-9.684-19.453-13.68c-6.207-4.083-17.539-11.01-22.18-13.562c-0.688-0.378-2.432-1.343-3.875-2.141
	c-1.444-0.797-3.451-1.886-4.461-2.422c-1.662-0.881-1.883-1.093-2.344-2.211c-0.579-1.402-0.919-2.168-2.562-5.859
	c-1.543-3.463-5.033-10.702-7.586-15.789c-22.734-7.535-47.043-11.617-72.306-11.617L260.64,0.004z M178.18,34.614l6.172,0.156
	c5.358,0.138,14.074,0.571,20.672,1.023c3.699,0.253,13.344,1.23,17.125,1.734c0.481,0.064,1.831,0.23,3,0.375
	c2.541,0.313,4.997,0.652,7.375,1.015c0.962,0.147,2.481,0.378,3.375,0.508c0.894,0.13,2.243,0.341,3,0.477
	c0.756,0.136,2.118,0.36,3.023,0.492c0.904,0.132,2.479,0.422,3.5,0.641c1.02,0.219,2.808,0.555,3.977,0.75
	c1.169,0.196,3.475,0.646,5.125,1c1.649,0.354,3.56,0.757,4.242,0.891s1.309,0.321,1.391,0.422
	c0.186,0.231-0.193,55.223-0.445,64.666l-0.188,6.977l-1.625,1c-0.894,0.548-3.312,2.031-5.375,3.297
	c-8.135,4.991-23.126,14.743-30.845,20.062c-6.77,4.665-9.167,6.341-14.906,10.43c-12.32,8.775-25.773,18.867-35.923,26.944
	c-2.203,1.754-4.075,3.178-4.164,3.164c-0.089-0.013-1.626-0.472-3.414-1.016c-1.787-0.543-5.162-1.538-7.5-2.211
	c-2.337-0.672-5.938-1.725-8-2.336c-6.637-1.967-11.875-3.468-16.75-4.805c-2.424-0.664-4.91-1.358-9.25-2.586
	c-5.477-1.549-6.322-1.787-10.875-3.039c-2.544-0.699-5.356-1.479-6.25-1.734s-2.75-0.762-4.125-1.125
	c-4.625-1.221-5.243-1.391-6.406-1.758c-0.637-0.201-1.333-0.367-1.547-0.367s-0.45-0.101-0.523-0.219
	c-0.136-0.22,0.272-3.804,0.984-8.656c0.222-1.512,0.495-3.425,0.609-4.25c0.355-2.566,1.03-6.54,1.594-9.375
	c0.205-1.031,0.57-2.943,0.805-4.25c0.234-1.306,0.576-2.955,0.766-3.664c0.189-0.708,0.344-1.546,0.344-1.859
	c0-0.312,0.105-0.913,0.234-1.336c0.129-0.422,0.364-1.44,0.523-2.266c0.435-2.246,0.953-4.57,1.391-6.25
	c0.585-2.243,0.769-2.992,1.469-6c0.352-1.512,0.765-3.087,0.914-3.5s0.361-1.144,0.477-1.625c0.609-2.549,0.809-3.293,1.359-5.125
	c0.331-1.1,0.789-2.675,1.016-3.5c0.227-0.825,0.571-1.869,0.766-2.32c0.195-0.452,0.352-0.955,0.352-1.117
	c0-0.294,2.922-9.222,4.109-12.562c0.351-0.988,0.883-1.968,1.227-2.25c7.185-5.9,17.72-14.022,23.289-17.953
	c2.253-1.591,15.579-10.521,17.5-11.727c0.688-0.431,1.812-1.138,2.5-1.578c0.993-0.636,8.383-5.057,10.75-6.43
	c2.883-1.672,6.768-3.819,10.953-6.055l2.203-1.18L178.18,34.614z M343.15,34.63l2.688,1.414c2.554,1.345,5.023,2.715,8.938,4.961
	c0.963,0.552,2.2,1.247,2.75,1.539c4.075,2.161,21.702,13.442,26.875,17.203c0.894,0.65,2.075,1.488,2.625,1.859
	c3.465,2.343,11.102,8.143,18.406,13.977c5.908,4.719,5.605,4.348,6.867,8.328c0.327,1.031,0.696,2.1,0.82,2.375
	c0.404,0.894,2.534,7.734,2.531,8.133c0,0.213,0.098,0.494,0.219,0.625c0.183,0.196,2.026,6.525,3.055,10.492
	c0.143,0.55,0.375,1.337,0.516,1.75c0.382,1.12,1.813,7.037,2.18,9.007c0.104,0.556,0.266,1.13,0.359,1.281
	c0.157,0.255,0.704,2.563,1.18,4.961c0.109,0.551,0.328,1.619,0.484,2.375c0.157,0.757,0.374,1.882,0.484,2.5
	c0.111,0.619,0.432,2.25,0.711,3.625s0.703,3.569,0.938,4.875c0.234,1.307,0.58,3.069,0.773,3.923
	c0.193,0.853,0.352,1.896,0.352,2.312c0,0.416,0.111,1.233,0.242,1.82c0.131,0.586,0.42,2.363,0.641,3.944
	c0.222,1.582,0.496,3.551,0.617,4.375c0.244,1.663,0.658,4.677,0.867,6.306c0.128,0.993,0.094,1.066-0.555,1.219
	c-1.189,0.278-3.117,0.78-5.117,1.336c-1.061,0.294-2.129,0.581-2.375,0.633c-0.561,0.116-2.869,0.723-4.617,1.219
	c-4.809,1.361-6.829,1.929-8.703,2.422c-1.168,0.307-2.8,0.759-3.625,1.008c-0.824,0.248-3.412,0.971-5.75,1.609
	c-2.337,0.638-5.149,1.428-6.25,1.75c-1.1,0.321-5.881,1.67-10.625,3c-4.743,1.329-9.637,2.743-10.875,3.14
	c-1.237,0.397-3.656,1.107-5.375,1.578c-1.719,0.472-4.699,1.325-6.625,1.898c-1.925,0.574-3.666,1.092-3.875,1.148
	c-0.209,0.058-1.39-0.703-2.625-1.695c-24.859-19.952-59.245-44.122-85.18-59.875l-5.672-3.444l-0.016-35.791l-0.008-35.78
	l1.438-0.266c0.791-0.146,2.225-0.444,3.188-0.664c0.962-0.22,3.213-0.677,5-1.008s4.15-0.775,5.25-0.992s2.675-0.5,3.5-0.625
	c0.825-0.126,2.175-0.346,3-0.492c3.271-0.579,6.961-1.111,12.875-1.859c1.719-0.218,3.856-0.512,4.75-0.648
	c1.918-0.292,11.011-1.192,13.875-1.375c1.1-0.07,2.506-0.183,3.125-0.25c0.619-0.068,2.138-0.181,3.375-0.25
	c1.237-0.07,2.981-0.185,3.875-0.25c2.853-0.209,6.97-0.371,12.812-0.516L343.15,34.63L343.15,34.63z M91.6,160.659
	c0.099,0.001,1.417,0.349,2.93,0.773c1.513,0.426,3.2,0.891,3.75,1.031c0.55,0.142,1.483,0.424,2.07,0.625
	c0.587,0.202,1.42,0.417,1.852,0.484c0.432,0.068,1.073,0.242,1.43,0.383c0.356,0.142,1.661,0.516,2.898,0.828
	c1.237,0.313,2.812,0.739,3.5,0.953c1.038,0.323,5.691,1.658,9.375,2.688c0.481,0.135,2.225,0.65,3.875,1.141
	c1.65,0.491,3.22,0.933,3.484,0.984c0.265,0.053,1.164,0.314,2,0.586s2.135,0.655,2.891,0.852
	c1.814,0.473,10.277,2.996,13.125,3.914c1.237,0.399,3.994,1.234,6.125,1.852c2.131,0.618,5.788,1.709,8.125,2.422
	c2.338,0.714,4.812,1.459,5.5,1.664s1.336,0.455,1.438,0.547c0.102,0.093,0.925,3.03,1.828,6.531
	c0.903,3.502,2.093,7.942,2.648,9.867c0.556,1.926,1.321,4.625,1.703,6c1.145,4.118,3.731,13.028,4.789,16.5
	c0.545,1.788,1.331,4.375,1.75,5.75s1.445,4.638,2.273,7.25c0.828,2.613,1.732,5.481,2.016,6.375
	c2.638,8.326,8.008,24.075,11.547,33.876c2.771,7.67,5.576,15.277,6.008,16.281c0.364,0.844,0.3,0.951-6.977,10.969
	c-0.898,1.236-2.798,3.88-4.219,5.875c-4.118,5.777-6.351,8.896-8.781,12.273c-1.248,1.734-2.859,3.984-3.578,5
	s-2.436,3.426-3.812,5.352c-1.376,1.924-4.04,5.693-5.922,8.375c-1.881,2.682-3.906,5.549-4.508,6.375
	c-2.182,2.994-7.188,10.064-9.023,12.75c-2.21,3.234-2.314,3.354-2.805,3.188c-0.771-0.264-5.311-2.072-6.078-2.422
	c-0.438-0.199-1.922-0.832-3.297-1.406s-2.781-1.197-3.125-1.383s-1.693-0.785-3-1.328c-1.306-0.545-3.05-1.318-3.875-1.727
	s-2.231-1.051-3.125-1.422c-0.894-0.373-2.243-0.994-3-1.383c-0.756-0.391-2.274-1.117-3.375-1.609
	c-1.1-0.494-2.281-1.064-2.625-1.273s-1.243-0.668-2-1.016c-0.756-0.348-1.938-0.922-2.625-1.281s-2.712-1.41-4.5-2.328
	c-4.209-2.164-8.896-4.695-9.273-5.008c-0.163-0.137-0.999-0.584-1.859-1c-0.86-0.416-2.159-1.143-2.891-1.609
	c-0.731-0.469-1.873-1.139-2.531-1.492c-2.09-1.121-3.897-2.174-5.57-3.242c-0.894-0.572-2.188-1.359-2.875-1.75
	c-0.688-0.393-2.037-1.229-3-1.859c-1.969-1.289-2.023-1.324-4.039-2.5c-0.802-0.469-1.911-1.203-2.461-1.633
	s-1.311-0.984-1.695-1.227s-0.8-0.689-0.922-0.992s-0.633-1.504-1.133-2.672c-0.5-1.17-1.337-3.389-1.867-4.93
	c-0.53-1.543-1.04-2.928-1.133-3.078c-0.52-0.842-5.985-17.09-7.016-20.86c-0.186-0.682-0.618-2.088-0.961-3.125
	c-0.342-1.036-0.84-2.726-1.109-3.757c-0.269-1.031-0.613-2.213-0.758-2.625c-0.457-1.311-2.781-10.268-2.781-10.72
	c0-0.238-0.273-1.413-0.609-2.609c-1.245-4.443-1.641-6.018-1.641-6.547c0-0.299-0.164-1.238-0.367-2.086
	c-0.527-2.207-1.503-6.927-2-9.664c-0.062-0.344-0.245-1.356-0.406-2.25c-0.16-0.894-0.445-2.335-0.633-3.203
	c-0.709-3.283-0.775-3.074,4.977-16.172c4.006-9.122,11.132-23.693,14.727-30.103c0.973-1.734,2.165-3.88,2.648-4.773
	c3.864-7.145,9.652-16.867,14.43-24.25C90.793,161.615,91.438,160.658,91.6,160.659L91.6,160.659z M429.625,160.8
	c0.056-0.002,0.098,0.008,0.117,0.016c0.162,0.069,0.732,0.821,1.273,1.672c2.798,4.397,6.472,10.221,7.281,11.548
	c3.418,5.596,7.541,12.681,9.673,16.625c1.374,2.543,2.578,4.737,2.68,4.875c0.636,0.867,7.966,15.33,10.39,20.5
	c3.299,7.033,6.077,13.334,8.798,19.976l1.117,2.719l-0.422,2.531c-0.362,2.201-2.454,12.96-3.142,16.149
	c-0.91,4.229-1.354,6.135-1.852,8c-0.311,1.168-0.814,3.193-1.125,4.5c-0.861,3.632-2.944,11.18-4.375,15.875
	c-1.498,4.92-3.907,12.484-4.18,13.125c-0.146,0.344-0.745,2.087-1.336,3.875c-0.59,1.787-1.473,4.318-1.969,5.625
	c-0.495,1.307-1.188,3.189-1.539,4.188c-0.35,0.998-1.237,3.234-1.969,4.977c-1.52,3.623-0.922,3.049-7.367,7.117
	c-5.784,3.65-5.856,3.697-6.273,3.883c-0.206,0.092-0.938,0.529-1.625,0.977c-1.81,1.174-6.901,4.109-7.133,4.109
	c-0.107,0-0.235,0.084-0.281,0.188c-0.093,0.209-1.872,1.219-3.961,2.25c-0.756,0.373-1.431,0.752-1.5,0.844
	c-0.139,0.186-5.206,2.92-10,5.398c-1.719,0.889-3.406,1.773-3.75,1.961c-0.882,0.482-13.425,6.467-14.375,6.859
	c-0.274,0.113-1.811,0.834-3.414,1.602c-1.603,0.768-2.99,1.398-3.086,1.398c-0.181,0-0.799,0.268-3.812,1.664
	c-0.997,0.463-2.46,1.076-3.25,1.367c-0.789,0.289-2.042,0.801-2.781,1.133c-0.738,0.332-2.482,1.061-3.875,1.617
	s-2.646,1.064-2.789,1.125c-0.143,0.059-1.776-2.061-3.633-4.711c-4.68-6.684-12.315-17.496-17.094-24.203
	c-2.207-3.1-5.871-8.254-8.14-11.453s-4.794-6.74-5.61-7.867c-0.815-1.127-2.677-3.734-4.14-5.797
	c-1.464-2.062-4.433-6.215-6.594-9.226c-2.161-3.012-4.021-5.655-4.133-5.875c-0.137-0.266,0.25-1.62,1.148-4.023
	c0.745-1.994,2.128-5.763,3.07-8.375c0.942-2.613,2.462-6.832,3.382-9.375c2.297-6.349,9.055-26.296,10.078-29.75
	c0.143-0.481,0.783-2.507,1.422-4.5c0.64-1.994,1.366-4.301,1.617-5.125c0.252-0.825,0.687-2.231,0.961-3.125
	c2.53-8.22,5.752-19.202,7.047-24c0.242-0.895,0.948-3.369,1.57-5.5c0.623-2.132,1.777-6.406,2.562-9.5
	c0.786-3.094,1.518-5.793,1.625-5.993c0.107-0.199,0.853-0.555,1.656-0.797c0.805-0.241,2.756-0.857,4.337-1.359
	c1.581-0.501,3.212-0.993,3.625-1.102c1.142-0.298,10.749-3.168,12.875-3.844c1.849-0.587,11.245-3.339,15.625-4.577
	c1.237-0.351,2.925-0.84,3.75-1.086s2.568-0.753,3.875-1.125c1.306-0.373,3.894-1.117,5.75-1.656
	c5.767-1.675,6.018-1.749,8.351-2.336c1.252-0.315,2.566-0.688,2.923-0.828c0.356-0.142,0.998-0.315,1.43-0.383
	c0.431-0.068,1.272-0.283,1.859-0.484c0.587-0.202,1.513-0.484,2.062-0.625c0.55-0.142,2.223-0.599,3.711-1.016
	C428.044,161.083,429.238,160.814,429.625,160.8L429.625,160.8z M318.71,292.723l1.789,2.422c0.981,1.331,3.131,4.309,4.781,6.609
	c1.649,2.301,3.734,5.156,4.633,6.351c0.897,1.197,2.168,2.967,2.82,3.93c0.65,0.963,2.146,3.045,3.319,4.625
	c1.175,1.582,2.548,3.492,3.056,4.242c0.507,0.752,1.934,2.729,3.172,4.398c1.237,1.672,4.162,5.719,6.5,8.992
	c2.337,3.273,4.925,6.877,5.75,8.008c0.824,1.133,2.175,2.986,3,4.125c2.318,3.201,8.488,11.916,9.773,13.805l1.148,1.695l-1,1.328
	c-0.898,1.189-6.569,8.076-7.953,9.656c-0.301,0.344-1.699,1.977-3.109,3.625c-1.411,1.65-2.631,3.057-2.711,3.125
	c-0.08,0.07-0.881,0.969-1.773,2c-0.894,1.031-1.688,1.932-1.766,2c-0.078,0.07-1.189,1.307-2.469,2.75
	c-10.139,11.434-27.16,28.143-40.596,39.846l-1.711,1.484l-2.789,0.195c-1.535,0.109-4.639,0.322-6.891,0.469
	c-2.251,0.146-4.184,0.32-4.297,0.391s-3.502,0.297-7.531,0.5c-6.888,0.346-28.729,0.646-33.952,0.469
	c-9.993-0.34-17.2-0.676-19-0.891c-1.169-0.139-3.7-0.359-5.625-0.484c-9.965-0.652-9.52-0.584-10.742-1.586
	c-1.195-0.979-3.596-3.115-6.758-6.008c-1.1-1.006-2.506-2.244-3.125-2.758c-2.687-2.227-15.394-14.656-22.5-22.008
	c-9.606-9.938-29.5-32.869-29.5-34.008c0-0.129,0.609-1.078,1.352-2.109c0.742-1.029,2.003-2.83,2.805-4
	c0.802-1.168,2.752-3.924,4.328-6.125c1.576-2.199,3.286-4.619,3.805-5.375s2.015-2.838,3.328-4.625s3.252-4.486,4.305-6
	c1.053-1.512,3.051-4.305,4.438-6.203c1.387-1.896,3.247-4.496,4.141-5.773s2.638-3.699,3.875-5.383s2.799-3.865,3.469-4.852
	c0.67-0.984,1.577-2.238,2.016-2.789c0.439-0.549,1.634-2.18,2.648-3.625c1.015-1.443,2.361-3.299,2.992-4.125
	c0.631-0.824,2.069-2.793,3.195-4.375c1.127-1.581,2.241-3.117,2.484-3.414c0.437-0.529,0.514-0.533,4.945-0.32
	c17.824,0.86,28.567,1.073,53.875,1.078c15.681,0.004,29.473-0.115,34.5-0.297c10.87-0.391,20.812-0.79,22.344-0.898l1.211-0.086
	L318.71,292.723z"/>
<g id="path4949_1_">
	
		<linearGradient id="SVGID_7_" gradientUnits="userSpaceOnUse" x1="-4380.8647" y1="619.8394" x2="-4349.2393" y2="583.3463" gradientTransform="matrix(1 0 0 -1 4587.7002 912.0537)">
		<stop  offset="0" style="stop-color:#FFFFFF"/>
		<stop  offset="1" style="stop-color:#FFFFFF;stop-opacity:0"/>
	</linearGradient>
	<path fill="url(#SVGID_7_)" d="M174.815,331.681c0,0,25.575-37.078,27.725-37.722s73.488,1.684,73.488,1.684
		s-66.953,4.862-71.208,5.623c-4.257,0.76-30.005,30.414-30.005,30.414V331.681z"/>
</g>
<path id="path5027_1_" fill="#FFFF00" d="M169.89,45.589c-0.083,0.046-0.21,0.122-0.312,0.18
	C169.805,45.7,169.854,45.644,169.89,45.589z"/>
<path id="path5017_1_" fill="#FFFF00" d="M91.815,165.604c-0.076-0.018-0.127,0.01,0.117,0.031
	C91.897,165.626,91.841,165.61,91.815,165.604z"/>
<g id="path5015_1_" opacity="0.6718" enable-background="new    ">
	<path fill="#FFFF00" d="M63.415,311.691c-0.008-0.002,0.173,0.291,0.234,0.398c-0.005-0.014-0.019-0.035-0.024-0.047
		c-0.035-0.066-0.11-0.193-0.133-0.242C63.46,311.753,63.422,311.693,63.415,311.691L63.415,311.691z"/>
</g>
<g id="path5013_1_">
	
		<linearGradient id="SVGID_8_" gradientUnits="userSpaceOnUse" x1="-4272.7222" y1="734.686" x2="-4194.4727" y2="492.1397" gradientTransform="matrix(1 0 0 -1 4587.7002 912.0537)">
		<stop  offset="0" style="stop-color:#FFFFFF"/>
		<stop  offset="1" style="stop-color:#FFFFFF;stop-opacity:0"/>
	</linearGradient>
	<path fill="url(#SVGID_8_)" d="M426.34,340.625c-17.692,9.537-36.333,17.553-54.812,25.191
		c-17.535,21.982-34.442,47.553-55.442,66.248c9.682,9.051,22.801,17.463,35.015,7.209c41.255-17.848,76.917-48.414,100.75-86.537
		c-0.647-2.555-1.629-5.811-2.686-9.191c-3.115-18.926-11.164-9.223-22.824-2.918V340.625z"/>
</g>
<g id="path5011_1_">
	
		<linearGradient id="SVGID_9_" gradientUnits="userSpaceOnUse" x1="-4402.3613" y1="775.4692" x2="-4464.2861" y2="448.6335" gradientTransform="matrix(1 0 0 -1 4587.7002 912.0537)">
		<stop  offset="0" style="stop-color:#FFFFFF"/>
		<stop  offset="1" style="stop-color:#FFFFFF;stop-opacity:0"/>
	</linearGradient>
	<path fill="url(#SVGID_9_)" d="M71.44,356.726c26.92,40.197,67.195,71.342,113,86.984c5.448-4.496,20.22-11.859,22.071-16.783
		c-20.695-18.248-41.297-40.215-58.64-61.658c-22.98-10.1-43.18-20.049-62.18-31.273C71.07,316.421,67.049,351.591,71.44,356.726
		L71.44,356.726z"/>
</g>
<path id="path5005_1_" fill="#FFFF00" d="M354.24,388.027c-0.044,0.041-0.133,0.129-0.133,0.133
	C354.38,387.917,354.207,388.062,354.24,388.027z"/>
<radialGradient id="path5092_2_" cx="-3981.9783" cy="544.269" r="195.4655" gradientTransform="matrix(1.3587 0 0 -1.2282 5673.5508 896.8844)" gradientUnits="userSpaceOnUse">
	<stop  offset="0" style="stop-color:#FFFFFF;stop-opacity:0"/>
	<stop  offset="0.8487" style="stop-color:#FFFFFF;stop-opacity:0"/>
	<stop  offset="1" style="stop-color:#FFFFFF"/>
</radialGradient>
<path id="path5092_1_" fill="url(#path5092_2_)" d="M78.315,329.111c-8.501-0.104-10.407,23.479-6.875,27.611
	c26.92,40.197,67.195,71.342,113,86.984c5.448-4.498,20.219-11.859,22.07-16.781c-20.695-18.25-41.297-40.213-58.64-61.656
	c-22.98-10.1-43.181-20.047-62.181-31.271c-2.855-3.432-5.312-4.857-7.375-4.883V329.111z M442.365,332.455
	c-4.038-0.004-9.456,4.619-16.016,8.164c-17.691,9.539-36.332,17.559-54.812,25.195c-17.534,21.982-34.444,47.547-55.444,66.242
	c9.682,9.051,22.802,17.467,35.015,7.211c41.255-17.848,76.918-48.418,100.75-86.539c-0.647-2.555-1.631-5.807-2.688-9.188
	C447.806,335.259,445.505,332.457,442.365,332.455L442.365,332.455z"/>
<g id="path5142_1_">
	
		<linearGradient id="SVGID_10_" gradientUnits="userSpaceOnUse" x1="-4120.0659" y1="714.7524" x2="-4219.2168" y2="764.6254" gradientTransform="matrix(1 0 0 -1 4587.7002 912.0537)">
		<stop  offset="0" style="stop-color:#FFFFFF"/>
		<stop  offset="1" style="stop-color:#FFFFFF;stop-opacity:0"/>
	</linearGradient>
	<path fill="url(#SVGID_10_)" d="M355.215,176.434c0,0,60.819-17.029,64.467-19.462c3.649-2.433,4.258-2.433,4.258-5.474
		s-0.608-16.421-0.608-16.421l4.258,23.111l-72.375,22.503L355.215,176.434z"/>
</g>
<g id="path5168_1_">
	
		<linearGradient id="SVGID_11_" gradientUnits="userSpaceOnUse" x1="-4247.0938" y1="736.6597" x2="-4202.0942" y2="670.9754" gradientTransform="matrix(1 0 0 -1 4587.7002 912.0537)">
		<stop  offset="0" style="stop-color:#FFFFFF"/>
		<stop  offset="1" style="stop-color:#FFFFFF;stop-opacity:0"/>
	</linearGradient>
	<path fill="url(#SVGID_11_)" d="M428.19,164.271c0,0-68.117,18.246-69.942,18.854c-1.824,0.608-35.883,104.607-35.883,104.607
		s35.275-96.095,38.315-99.135C363.721,185.557,428.19,166.703,428.19,164.271L428.19,164.271z"/>
</g>
<g id="path5206_1_">
	<path fill="#FFFFFF" d="M262.765,114.411c-0.86-4.3,0-68.807,0-68.807l16.342-4.3c0,0-7.741,1.72-12.042,6.021
		s2.15,56.337,3.01,60.638c0.86,4.301,47.735,41.715,47.735,41.715L262.765,114.411z"/>
</g>
<g id="path5220_1_">
	
		<linearGradient id="SVGID_12_" gradientUnits="userSpaceOnUse" x1="-4442.8706" y1="852.7935" x2="-4401.5703" y2="776.2428" gradientTransform="matrix(1 0 0 -1 4587.7002 912.0537)">
		<stop  offset="0" style="stop-color:#FFFFFF"/>
		<stop  offset="1" style="stop-color:#FFFFFF;stop-opacity:0"/>
	</linearGradient>
	<path fill="url(#SVGID_12_)" d="M127.79,159.627c0,0-21.435-15.094-24.441-19.108s33.805-66.587,48.24-77.577
		c14.435-10.992,69.7-20.122,69.7-20.122l-5.659,29.113C173.342,91.409,152.57,121.987,127.79,159.627L127.79,159.627z"/>
</g>
<g id="path5240_1_">
	<linearGradient id="SVGID_13_" gradientUnits="userSpaceOnUse" x1="-3202.7437" y1="46.6611" x2="-3457.3438" y2="407.9061">
		<stop  offset="0" style="stop-color:#333333"/>
		<stop  offset="1" style="stop-color:#333333;stop-opacity:0"/>
	</linearGradient>
	<path fill="none" stroke="url(#SVGID_13_)" stroke-width="20" d="M258.015,45.604c0,0-2.15,63.217-1.721,67.087
		c0.224,2.013-25.654,17.652-48.85,33.855c-21.414,14.959-40.223,30.652-41.463,30.652c-2.58,0-75.689-20.213-75.689-20.213"/>
</g>
<g id="path5266_1_">
	
		<linearGradient id="SVGID_14_" gradientUnits="userSpaceOnUse" x1="-4492.9712" y1="750.9077" x2="-4469.7461" y2="676.0774" gradientTransform="matrix(1 0 0 -1 4587.7002 912.0537)">
		<stop  offset="0" style="stop-color:#FFFFFF"/>
		<stop  offset="1" style="stop-color:#FFFFFF;stop-opacity:0"/>
	</linearGradient>
	<path fill="url(#SVGID_14_)" d="M164.265,183.222l-73.11-22.363L53.31,229.666c0,0,35.265-60.207,39.565-61.067
		S164.265,183.221,164.265,183.222L164.265,183.222z"/>
</g>
<g id="path5288_1_" opacity="0.852" enable-background="new    ">
	<linearGradient id="SVGID_15_" gradientUnits="userSpaceOnUse" x1="-3323.1436" y1="-521.0088" x2="-3557.0435" y2="74.1812">
		<stop  offset="0" style="stop-color:#000000"/>
		<stop  offset="1" style="stop-color:#000000;stop-opacity:0"/>
	</linearGradient>
	<path fill="none" stroke="url(#SVGID_15_)" stroke-width="20" d="M164.265,184.941c8.823,32.045,19.634,70.38,35.265,109.234"/>
</g>
<g id="path5354_1_">
	
		<radialGradient id="SVGID_16_" cx="-3660.427" cy="1505.6118" r="52.4078" gradientTransform="matrix(2.2801 -0.6319 -0.1751 -0.6317 8832.6641 -1219.1899)" gradientUnits="userSpaceOnUse">
		<stop  offset="0" style="stop-color:#FFFFFF"/>
		<stop  offset="1" style="stop-color:#FFFFFF;stop-opacity:0"/>
	</radialGradient>
	<path fill="url(#SVGID_16_)" d="M171.165,184.512c21.59-21.162,59.573-49.445,89.415-66.673c3.31,0.008,13.369,6.896,13.369,6.896
		c-5.365-2.321-6.856-4.618-12.979-5.027C229.245,140.356,200.035,162.344,171.165,184.512L171.165,184.512z"/>
</g>
<g id="path5372_1_">
	
		<linearGradient id="SVGID_17_" gradientUnits="userSpaceOnUse" x1="-4328.1572" y1="557.2173" x2="-4325.582" y2="649.2585" gradientTransform="matrix(1 0 0 -1 4587.7002 912.0537)">
		<stop  offset="0" style="stop-color:#FFFFFF"/>
		<stop  offset="1" style="stop-color:#FFFFFF;stop-opacity:0"/>
	</linearGradient>
	<path fill="url(#SVGID_17_)" d="M200.84,280.627c0,0,0.43,5.59,5.591,7.74c5.16,2.15,103.643,0,107.082,0
		c3.44,0,9.031-12.901,9.031-12.901s-5.376,15.481-6.666,15.912c-1.29,0.43-109.02-0.646-111.17-0.646s-3.87-10.105-3.87-10.105
		H200.84z"/>
</g>
<g id="path5394_1_">
	
		<linearGradient id="SVGID_18_" gradientUnits="userSpaceOnUse" x1="-4415.7808" y1="880.4585" x2="-4312.5562" y2="878.7385" gradientTransform="matrix(1 0 0 -1 4587.7002 912.0537)">
		<stop  offset="0" style="stop-color:#FFFFFF"/>
		<stop  offset="1" style="stop-color:#FFFFFF;stop-opacity:0"/>
	</linearGradient>
	<path fill="url(#SVGID_18_)" d="M181.465,32.624c17.035-0.914,36.362,0.788,54.397,3.015l10.424-4.128
		c-19.952-2.542-35.162-2.427-52.265-1.833L181.465,32.624z"/>
</g>
<g id="path5420_1_">
	
		<linearGradient id="SVGID_19_" gradientUnits="userSpaceOnUse" x1="-4502.0112" y1="802.6489" x2="-4465.0371" y2="779.4261" gradientTransform="matrix(1 0 0 -1 4587.7002 912.0537)">
		<stop  offset="0" style="stop-color:#FFFFFF"/>
		<stop  offset="1" style="stop-color:#FFFFFF;stop-opacity:0"/>
	</linearGradient>
	<path fill="url(#SVGID_19_)" d="M106.74,82.127c-8.978,19.422-13.174,44.735-17.307,70.13c0,0-2.054-5.257-3.336-13.762
		c-2.081-13.805,9.774-47.688,12.077-49.525L106.74,82.127z"/>
</g>
<g id="path5640_1_">
	
		<linearGradient id="SVGID_20_" gradientUnits="userSpaceOnUse" x1="-3773.5879" y1="506.7759" x2="-4238.4121" y2="837.2778" gradientTransform="matrix(1 0 0 -1 4587.7002 912.0537)">
		<stop  offset="0" style="stop-color:#FFFFFF"/>
		<stop  offset="1" style="stop-color:#FFFFFF;stop-opacity:0"/>
	</linearGradient>
	<path fill="url(#SVGID_20_)" d="M432.916,85.107c17.969,19.48,57.502,130.43,46.297,138.14c-7.264,4.998-6.057-0.801-9.2-9.757
		c1.169,12.583,1.879,16.989,4.448,19.365l21.807-16.95c-0.515-44.745-18.781-89.492-40.13-134.238L432.916,85.107z"/>
</g>
<g id="path5674_1_" opacity="0.5869" enable-background="new    ">
	
		<linearGradient id="SVGID_21_" gradientUnits="userSpaceOnUse" x1="-4183.1816" y1="650.5366" x2="-4204.6816" y2="954.1541" gradientTransform="matrix(1 0 0 -1 4587.7002 912.0537)">
		<stop  offset="0" style="stop-color:#000000"/>
		<stop  offset="1" style="stop-color:#000000;stop-opacity:0"/>
	</linearGradient>
	<path fill="url(#SVGID_21_)" d="M344.465,33.562c0,0,19.526,11.335,37.625,22.552c14.113,8.747,27.527,17.926,29.034,18.303
		c3.441,0.86,24.514,6.451,24.514,6.451l-23.223-2.581L344.465,33.562z"/>
</g>
<g id="path5712_1_">
	
		<linearGradient id="SVGID_22_" gradientUnits="userSpaceOnUse" x1="-4535.3994" y1="680.1089" x2="-4553.6494" y2="652.1317" gradientTransform="matrix(1 0 0 -1 4587.7002 912.0537)">
		<stop  offset="0" style="stop-color:#FFFFFF"/>
		<stop  offset="1" style="stop-color:#FFFFFF;stop-opacity:0"/>
	</linearGradient>
	<path fill="url(#SVGID_22_)" d="M32.865,227.521c0,0,6.69,10.339,9.123,13.988s9.731,25.545,9.731,25.545l-4.257-28.585
		L32.865,227.521z"/>
</g>
<g id="path5742_1_">
	
		<linearGradient id="SVGID_23_" gradientUnits="userSpaceOnUse" x1="-4544.4785" y1="441.8716" x2="-4527.5034" y2="771.9557" gradientTransform="matrix(1 0 0 -1 4587.7002 912.0537)">
		<stop  offset="0" style="stop-color:#FFFFFF"/>
		<stop  offset="1" style="stop-color:#FFFFFF;stop-opacity:0"/>
	</linearGradient>
	<path fill="url(#SVGID_23_)" d="M32.365,222.552c0,0,11.169,7.802,14.818,7.802c3.649,0,28.26-61.827,33.732-66.692
		c5.474-4.865-4.257,13.988-4.257,13.988l-28.585,57.777l-14.597-9.731L32.365,222.552z"/>
</g>
<g id="path5756_1_" opacity="0.2819" enable-background="new    ">
	<radialGradient id="SVGID_24_" cx="-3604.1436" cy="522.5112" r="192.84" gradientUnits="userSpaceOnUse">
		<stop  offset="0" style="stop-color:#000000"/>
		<stop  offset="1" style="stop-color:#000000;stop-opacity:0"/>
	</radialGradient>
	<path fill="none" stroke="url(#SVGID_24_)" stroke-width="15" d="M96.715,87.639c25.782-22.323,65.665-50.17,96.095-61.428"/>
</g>
</svg>
