<?xml version="1.0" encoding="utf8" standalone="no"?>
<svg viewBox="0 0 635 741" width="635px" height="741px" xmlns="http://www.w3.org/2000/svg">
<defs>
<radialGradient cx="292.3681" cy="594.04956" gradientTransform="matrix(2.30221,1.71237,-2.051,2.75747,697.87714,-1724.5734)" gradientUnits="userSpaceOnUse" id="radialGradient14075" r="83.99205">
<stop offset="0" stop-color="#f60"/>
<stop offset="1" stop-color="#a84f13"/>
</radialGradient>
</defs>
<g transform="matrix(1.76648,0,0,1.76648,-456.74675,-732.20799)">
<path d="m277.85714,635.93361 307.14286-221.42857 33.57143,225.71429-360,194.28571 19.28571-198.57143z" fill="#fdfdfd" fill-rule="evenodd"/>
<path d="m585,414.5-307.15625,221.4375-19.28125,198.5625 360-194.28125-33.5625-225.71875zm-12.15625,17.15625 30.71875,198.5625-338.5625,186.4375 15.71875-173.59375 292.125-211.40625z" fill-rule="evenodd"/>
<path d="m460,597.375-99.28125,63.5625-2.15625,92.84375 105-57.84375-3.5625-98.5625zm-9.28125,17.125 2.125,75.71875-86.40625,50 3.5625-74.28125 80.71875-51.4375z" fill-rule="evenodd" stroke="#000"/>
</g>
<g transform="translate(-73.06564,-21.72397)">
<path d="m273.70363,554.20191 30.2826-21.45018 49.20922,68.13585-56.77986,30.2826-22.71196-76.96827z" fill="#280b0b" stroke="#000" stroke-linejoin="round" stroke-width="1.76648"/>
<path d="m194.16449,401.54189c-13.60349-.06772-27.05639,1.23287-39.91152,3.69858-5.75623.87026-11.01172,2.0271-15.51195,3.58817-26.68642,7.4987-49.52146,20.53929-63.48305,38.08983l-.0552.11041c-24.5767,31.00605-14.11443,65.44768 21.58424,88.71066-1.52368,6.17136-3.16409,13.38459-3.53297,17.22323 104.65363,58.68738 187.47199,8.63967 216.83602-14.13188l-1.04885,11.59256 49.51678,52.60813-3.09135-57.96279-34.66727-23.73714-1.76648-15.95357c17.28903-37.17226-10.25001-77.83976-68.17528-95.50059-18.26627-5.56918-37.6032-8.24056-56.69312-8.3356zm-20.03857,17.05762c46.81544-.46368 92.02283,14.4631 92.02283,14.4631l1.26966,15.12553 42.17482,39.08347c-1.42742,7.81832-5.08857,15.60865-11.26134,23.07471-20.42899,24.7092-62.34526,39.00611-105.76828,38.80747-16.99162-.07773-34.19403-2.36798-50.45523-7.12114-57.81759-16.90014-81.69351-58.52798-53.27055-92.90607l.0552-.0552c7.89698-9.5171 19.00077-17.44454 32.12794-23.62674-.07384.83666-.07965,1.70888 0,2.59453 16.20155-6.72586 34.78587-9.2582 53.10495-9.43966z" fill="url(#radialGradient14075)"/>
</g>
</svg>
