<?xml version="1.0" encoding="utf-8"?>
<!-- Generator: Adobe Illustrator 15.0.2, SVG Export Plug-In  -->
<!DOCTYPE svg PUBLIC "-//W3C//DTD SVG 1.1//EN" "http://www.w3.org/Graphics/SVG/1.1/DTD/svg11.dtd" [
<!ENTITY ns_flows "http://ns.adobe.com/Flows/1.0/">
]>
<svg xmlns="http://www.w3.org/2000/svg" xmlns:xlink="http://www.w3.org/1999/xlink" xmlns:a="http://ns.adobe.com/AdobeSVGViewerExtensions/3.0/" version="1.1" x="0px" y="0px" width="121px" height="143px" viewBox="0.026 -2.166 121 143" overflow="visible" enable-background="new 0.026 -2.166 121 143" xml:space="preserve">
<defs>
</defs>
<path fill="#3C2018" d="M121.434,60.718c0,33.533-27.185,60.717-60.718,60.717C27.184,121.434,0,94.25,0,60.718  C0,27.185,27.185,0.001,60.717,0.001c33.279,0,60.356,26.788,60.713,60.065"/>
<radialGradient id="SVGID_1_" cx="-23.6348" cy="341.103" r="98.001" gradientTransform="matrix(0.4299 0.8598 1.5434 -0.7717 -436.9298 357.2925)" gradientUnits="userSpaceOnUse">
	<stop offset="0" style="stop-color:#A43C0E"/>
	<stop offset="1" style="stop-color:#CE907E"/>
</radialGradient>
<path fill="url(#SVGID_1_)" d="M59.541,0.003C40.662,0.363,23.892,9.362,12.996,23.198c3.937-1.297,15.097-4.389,20.62,0.271  c4.424,3.733,7.125,5.921,9.003,10.358c4.589-1.589,8.905-2.937,12.952-4.085C48.746,12.585,42.639,3.14,42.639,3.14l2.826-0.968  c0,0,5.323,7.164,12.991,26.777c4.572-1.225,8.792-2.182,12.682-2.904c-0.42-1.333-0.704-2.432-0.91-3.214  c-1.058-4.022-2.536-11.018,0.64-14.405c3.175-3.387,7.415-5.499,7.415-5.499l3.582,1.278c-0.56,0.132-9.515,2.383-9.72,10.997  c-0.078,3.302,0.708,6.954,1.84,10.339c26.936-4.416,36.992,2.573,39.09,4.395C102.515,12.005,83.013,0.003,60.722,0.003  C60.329,0.003,59.932-0.004,59.541,0.003z M22.89,22.927c-4.125,0.117-9.001,1.532-11.442,2.323  c-7.2,9.981-11.442,22.232-11.442,35.47c0,2.671,0.168,5.3,0.503,7.88c2.559-6.846,11.463-23.659,39.303-33.766  c-0.458-1.162-0.919-2.163-1.336-2.904c-1.905-3.387-6.346-7.192-12.062-8.674C25.375,22.987,24.169,22.891,22.89,22.927z   M90.15,26.838c-4.323,0.071-9.351,0.51-15.159,1.471c1.802,4.505,4.592,8.53,5.592,9.53c1.905,1.905,15.48,13.575,16.751,14.846  c1.27,1.27,8.878,7.188,13.959,14.598c3.891,5.673,5.787,11.709,6.467,14.23c2.367-6.488,3.679-13.49,3.679-20.794v-0.658  c-0.11-10.271-2.781-19.927-7.377-28.364l0.465,1.143c0,0.002,0,0.017,0,0.019h-0.02l-0.02-0.019  C113.937,32.415,107.963,26.546,90.15,26.838z M72.106,28.833c-3.863,0.724-8.048,1.669-12.585,2.885  c1.232,3.25,2.523,6.815,3.853,10.707c16.244,47.557,19.09,74.463,19.09,74.463l-2.478,1.007c0.38-1.121-7.64-39.24-19.749-75.431  c-1.184-3.539-2.396-6.857-3.581-9.952c-4.078,1.156-8.422,2.522-13.05,4.124c0.543,1.85,1.009,4.051,1.433,6.737  c1.905,12.067-4.624,24.762-5.483,26.903c-1.201,2.993-5.281,13.066-7.005,25.372c-1.037,7.41,0.21,17.354,1.162,19.478h0.02  c8.128,4.041,17.301,6.312,26.989,6.312c24.613,0,45.824-14.673,55.354-35.741l-0.116,0.175c0.111-0.72-1.316-10.229-5.711-16.05  c-6.409-8.491-9.472-11.567-20.375-20.508C80.438,41.574,74.309,34.472,72.106,28.833L72.106,28.833z M40.799,37.623  c-0.13,0.046-0.257,0.088-0.387,0.135C13.218,47.545,3.567,66.826,1.186,72.706c3.475,17.343,14.343,32.014,29.177,40.6  c-0.192-2.312-0.697-9.521-0.349-17.019c0.424-9.103,6.763-25.821,7.609-27.938c0.847-2.117,5.093-15.669,5.305-19.903  C43.06,45.819,42.039,41.407,40.799,37.623z"/>
<radialGradient id="SVGID_2_" cx="-258.9839" cy="-324.5312" r="79.5003" gradientTransform="matrix(0.5396 -0.095 -0.0408 -0.2874 180.1498 -94.6419)" gradientUnits="userSpaceOnUse">
	<stop offset="0" style="stop-color:#FFFFFF;stop-opacity:0.6771"/>
	<stop offset="1" style="stop-color:#FFFFFF;stop-opacity:0"/>
</radialGradient>
<path fill="url(#SVGID_2_)" d="M101.901,18.342c2.721,14.82-16.674,31.804-43.319,37.935C31.937,62.408,8.13,55.364,5.409,40.544  C2.688,25.725,22.082,8.741,48.728,2.61c26.443-6.084,50.134,0.804,53.118,15.444"/>
<radialGradient id="SVGID_3_" cx="-241.8579" cy="-68.7241" r="82.0006" gradientTransform="matrix(0.684 -0.1944 -0.1529 -0.5379 225.0078 -3.4376)" gradientUnits="userSpaceOnUse">
	<stop offset="0" style="stop-color:#3C2018;stop-opacity:0.6598"/>
	<stop offset="1" style="stop-color:#3C2018;stop-opacity:0"/>
</radialGradient>
<path fill="url(#SVGID_3_)" d="M120.877,91.709c0,28.4-22.746,51.424-50.804,51.424c-28.059,0-50.804-23.023-50.804-51.424  s22.745-51.423,50.804-51.423c27.846,0,50.502,22.688,50.801,50.871"/>
</svg>
