<?xml version="1.0" encoding="utf8" standalone="no"?>
<svg viewBox="0 0 224 465" width="224px" height="465px" xmlns="http://www.w3.org/2000/svg">
<g transform="translate(-323.78571,-294.85725)">
<path d="m364.28571,348.07647c-36.69915-18.39812-13.96054-53.7763 2.00174-52.06886 20.25736-5.28235 48.78106,22.73281 25.14112,43.49743 5.89286,6.60714 2.14286,6.42857 2.14286,6.42857l-12.85714,14.28571c0,0-10.9467,36.5174-19.28572,45 6.81327,9.99782 6.76251,16.06618 7.14286,24.28572 8.96664,5.31535 12.94008,18.44144 12.94008,18.44144l5.41842-.42585c0,0-.60968-8.9654.84055-16.79995 .56635-11.11754 4.32905-13.9069 4.32905-13.9069s2.31278-3.78929 5.04333-5.88017c19.39807-13.96017 39.86539,9.46582 32.14285,24.28571-4.43954,8.88524-9.13253,12.91163-10,14.28572-8.82242,6.55112-5.59173,19.49492-5.59173,19.49492 5.45447.42029 9.99847-.88017 13.15673,4.28571 2.9838,4.05246 9.75356,11.75779 11.8507,19.91334 0,0 2.86459,12.47309 2.01288,24.87746 10.00743,9.87899 17.05619,29.79079 17.05619,29.79079l20.08666,45.20921c6.41824,3.00692 10.65751,8.26451 16.84815,7.65883 .42924,2.93429 1.98964,4.01595 6.97582,2.9688-7.7982,9.75124 5.02764,10.66023 6.84699,16.17975l-9.7945-5.42213 6.89403,8.27927-9.20277-5.1696 2.86085,11.21936-7.85714-12.14285c-6.63186-6.40944-13.88032-6.34461-19.88116-19.37981-15.05998-13.55898-28.35642-26.83254-32.68383-51.34563 0,0-13.13878-16.62291-13.86358-27.84599-6.65945-6.29858-7.32143-4.46429-12.14286,0s-7.14285,17.85714-7.14285,17.85714c4.67181,10.01788 4.16917,18.02346 2.85714,25.71429l-.71429,13.57142c13.83018,13.56455 21.68532,34.42407 31.0931,42.77049 10.1366-8.5625 11.9685-6.84851 16.42857-5.71429 9.45774,3.34203 12.07132,10.26909 14.62119,17.22952 15.54861-1.28644 19.60239,5.787 28.57143,9.28571l7.14286.71429c7.87339-5.41639 14.48336-5.95961 20-2.28571 4.97165,4.9468 9.65578,10.07843 10,18 8.12424,6.07643 12.43486,13.37322 12.14285,22.14285 .88443,16.98522-6.57157,18.89291-13.57143,15.71429l-22.14285-26.42857c-2.99336-1.31214-4.19972-.58199-9.28572-4.28572-2.7082-2.90172-1.93677-4.06362-2.14285-5.71428-9.66572,1.33555-20.04249,1.01199-30.71429,0-5.61645,3.29827-4.41314,8.30147-5,12.85714-8.75916-.61048-16.51002-3.90977-24.28571-7.14286-20.16367,5.45362-39.39559-.43386-58.57143-5-1.57283,2.56568-3.14257,5.13353-1.42857,10 3.72048,5.77081 4.97768,13.13903 5.33547,19.24611 10.69031,5.26208 19.09511,12.80965 26.42857,21.42857 10.39038-.9609 18.742,2.44694 26.80738,6.46818-8.63917,27.10486-11.23662,19.65703-11.27098,23.31663-1.20812,4.86367-2.18076,10.98187-5.87187,15.96908-5.5117,10.615-14.43424,4.5184-15,.71429-1.6089-7.39221-1.44783-12.00305-.71429-15.71429-4.42738-4.21488-6.82053-9.44688-8.57143-15 3.2759-1.00611 3.22456-2.61718 2.85715-4.28571-18.49248-15.61172-43.20661-22.80236-65-35.71429-3.83975-4.54523-6.1912-10.38032-5-19.28571-2.14286-.04279-4.28572-.58574-6.42858-4.28571 1.18875-3.49783 2.80169-5.58165 5-5.71429-.29614-8.34932-2.12284-15.55073 0-25.71429-1.67166-1.89977-3.86067-3.28219-4.28571-6.42857-.35344-5.49333.8437-8.19562 2.14286-10.71428-.33457-2.85714.1133-5.71429-1.42857-8.57143 3.31127-5 2.68022-10 3.57142-15 3.6087-.4265 5.89844-2.61161 8.57143-4.28572 4.16342-43.99297 11.73669-90.13162 15.71429-127.14285 0,0-12.85715-27.50001-9.28572-51.42858s23.57143-44.28571 23.57143-44.28571-9.46429-7.5-3.57143-12.85714z" fill-rule="evenodd" opacity=".7434" stroke="#000"/>
</g>
</svg>
